<svg width="350" height="54" viewBox="0 0 350 54" fill="none" xmlns="http://www.w3.org/2000/svg">
<path fill-rule="evenodd" clip-rule="evenodd" d="M71.9069 14.6242C71.2308 15.5363 70.2263 16.9271 68.7622 19.0221C66.5582 22.1759 63.8934 25.0695 61.6935 26.9546V26.9559C58.4979 29.3556 54.5283 30.7775 50.2246 30.7775C45.9209 30.7775 41.9514 29.3556 38.7558 26.9559V26.9546C36.5556 25.0695 33.891 22.1759 31.6871 19.0221C30.2229 16.9271 29.2182 15.5365 28.5423 14.6242C22.3027 5.88891 12.079 0.193848 0.526367 0.193848V7.83977C9.62119 7.83977 17.6723 12.3757 22.5084 19.3086C22.9149 19.8546 23.4141 20.5841 23.9818 21.4137L23.9818 21.4137L23.9819 21.4138C24.9712 22.8594 26.1685 24.609 27.4463 26.2219C29.3733 28.6541 31.1347 30.4162 31.1347 30.4162L31.1366 30.4157C35.9923 35.357 42.7506 38.4234 50.2246 38.4234C57.6987 38.4234 64.4569 35.357 69.3127 30.4157L69.3146 30.4162C69.3146 30.4162 71.076 28.6539 73.003 26.2219C74.2808 24.609 75.4781 22.8593 76.4674 21.4137C77.0352 20.5841 77.5344 19.8546 77.9409 19.3086C82.7769 12.3757 90.8281 7.83977 99.9229 7.83977V0.193848C88.3703 0.193848 78.1466 5.88891 71.9069 14.6242ZM79.203 30.2257L79.203 30.2257L79.2031 30.2256C80.9718 27.6675 83.295 24.3075 85.8191 21.7014C89.3137 17.882 94.338 15.4854 99.9233 15.4852V23.1311C96.5266 23.1311 93.4738 24.6078 91.3752 26.9541C91.3752 26.9541 89.9519 28.5574 88.7412 30.4158C87.5305 32.2741 83.182 38.376 80.2783 41.0765H80.2781C72.6446 48.875 61.9998 53.7146 50.2249 53.7146C38.45 53.7146 27.8051 48.875 20.1716 41.0765H20.1714C17.2677 38.3761 12.9191 32.2741 11.7086 30.4158C10.498 28.5574 9.07454 26.9541 9.07454 26.9541C6.97573 24.6078 3.9231 23.1311 0.526397 23.1311V15.4852C6.11212 15.4852 11.1363 17.882 14.631 21.7014C17.1556 24.3078 19.4792 27.6686 21.248 30.2269C21.5465 30.6587 21.8292 31.0675 22.0944 31.4461C23.4175 33.3346 24.5787 34.6 24.5787 34.6C30.879 41.639 40.0348 46.0689 50.2251 46.0689C60.4154 46.0689 69.5712 41.639 75.8714 34.6C75.8714 34.6 77.0326 33.3346 78.3557 31.4461C78.6212 31.0672 78.9042 30.6579 79.203 30.2257ZM98.2667 31.1585C98.2839 31.1497 98.3004 31.1392 98.3176 31.1306L98.3184 31.134C98.8069 30.9075 99.3492 30.7774 99.9234 30.7774V38.4233H92.1106C92.3778 37.9913 93.122 36.9142 94.0043 35.7281C94.1927 35.4748 94.3832 35.2085 94.5781 34.9358C95.4519 33.7138 96.416 32.3656 97.6855 31.5049C97.8678 31.3728 98.0622 31.2573 98.2667 31.1585ZM2.18328 31.1584C2.3878 31.2573 2.5822 31.3729 2.76456 31.5048C4.03359 32.3653 4.99746 33.7129 5.87113 34.9345L5.87121 34.9346L5.87187 34.9355C6.0669 35.2082 6.25744 35.4746 6.44587 35.7278C7.32802 36.9139 8.07235 37.991 8.33957 38.423H0.526784V30.7771C1.1008 30.7771 1.64329 30.9071 2.13186 31.1338L2.13243 31.1305C2.14167 31.1351 2.15058 31.1402 2.15949 31.1453C2.16735 31.1498 2.17521 31.1543 2.18328 31.1584ZM14.3649 46.0694H0.526526V53.7153H23.7323C20.3042 51.5511 17.1587 48.9805 14.3649 46.0694ZM99.9235 53.7153H76.7178C80.1459 51.5511 83.2914 48.9805 86.0852 46.0694H99.9235V53.7153Z" fill="#00DAE8"/>
<path d="M247.617 34.9787C248.048 39.0429 251.709 46.0106 262.34 46.0106C271.604 46.0106 276.055 40.0591 276.055 34.2529C276.055 29.0272 272.538 24.7452 265.57 23.2932L260.544 22.2047C258.604 21.8418 257.312 20.7533 257.312 19.0115C257.312 16.979 259.322 15.4548 261.836 15.4548C264.745 15.4548 266.339 16.86 267.108 18.4342H275.61L275.625 18.4304C275.194 14.5839 271.82 8.12451 261.763 8.12451C254.153 8.12451 248.549 13.4227 248.549 19.8096C248.549 24.8177 251.638 28.9545 258.461 30.4788L263.129 31.5675C265.858 32.148 266.936 33.4546 266.936 35.0513C266.936 36.9383 265.427 38.6077 262.267 38.6077C259.019 38.6077 257.037 37.0187 256.219 34.9766H247.626L247.617 34.9787Z" fill="white"/>
<path fill-rule="evenodd" clip-rule="evenodd" d="M305.814 34.9766C304.42 36.6757 302.311 37.7368 299.254 37.7368C294.512 37.7368 290.562 34.3254 290.348 29.6077H315.627C315.627 29.5823 315.632 29.5169 315.639 29.4191L315.649 29.2858L315.649 29.2829L315.649 29.2814C315.689 28.7498 315.77 27.6701 315.77 26.6318C315.77 15.1645 309.235 8.12451 298.319 8.12451C289.27 8.12451 280.939 15.5274 280.939 26.9223C280.939 38.9704 289.486 46.0106 299.181 46.0106C307.735 46.0106 313.298 41.0172 315.182 34.9766H305.814ZM290.562 23.0032C290.779 19.7373 293.508 15.9632 298.463 15.9632C303.922 15.9632 306.219 19.4469 306.363 23.0032H290.562Z" fill="white"/>
<path d="M321.043 34.9768H329.638C330.454 37.0189 332.435 38.6079 335.683 38.6081C338.845 38.6081 340.352 36.9387 340.352 35.0517C340.352 33.455 339.276 32.1484 336.545 31.5679L331.877 30.4792C325.055 28.9549 321.966 24.8181 321.966 19.81C321.966 13.4231 327.569 8.12491 335.182 8.12491C345.237 8.12491 348.612 14.5843 349.043 18.4308L349.027 18.4346H340.524C339.757 16.8604 338.163 15.4552 335.253 15.4552C332.741 15.4552 330.728 16.9794 330.728 19.0119C330.728 20.7537 332.021 21.8422 333.96 22.2051L338.988 23.2936C345.955 24.7456 349.474 29.0276 349.474 34.2533C349.474 40.0595 345.02 46.011 335.756 46.011C325.127 46.011 321.464 39.0433 321.033 34.9791L321.043 34.9768Z" fill="white"/>
<path d="M240.406 8.12491H230.855V46.0108H240.406V8.12491Z" fill="white"/>
<path fill-rule="evenodd" clip-rule="evenodd" d="M204.785 8.12491C194.229 8.12491 186.256 16.036 186.256 27.0678C186.256 38.027 194.229 46.0108 204.785 46.0108C215.343 46.0108 223.314 38.027 223.314 27.0678C223.314 16.0359 215.343 8.12491 204.785 8.12491ZM204.785 37.2286C200.117 37.2286 195.809 33.7453 195.809 27.0678C195.809 20.318 200.117 16.9068 204.785 16.9068C209.453 16.9068 213.763 20.3178 213.763 27.0678C213.763 33.8177 209.453 37.2286 204.785 37.2286Z" fill="white"/>
<path d="M134.852 24.0193V45.9607H125.302V9.2131H130.068C132.473 9.2131 134.422 11.1629 134.422 13.5679C136.361 10.084 140.886 8.19706 144.764 8.19706C149.575 8.19706 153.455 10.3018 155.251 14.1486C158.05 9.79377 161.786 8.19706 166.454 8.19706C172.989 8.19706 179.237 12.189 179.237 21.7693V45.9609H169.974V23.7291C169.974 19.8825 168.105 16.9793 163.724 16.9793C159.63 16.9793 157.188 20.1727 157.188 24.0193V45.9609H147.708V23.7291C147.708 19.8825 145.77 16.9793 141.46 16.9793C137.296 16.9793 134.852 20.1001 134.852 24.0193Z" fill="white"/>
</svg>
